<?xml version="1.0" encoding="utf-8"?>
<svg xmlns="http://www.w3.org/2000/svg" viewBox="0 0 30 30" width="480" height="480">
  <path d="M15,4C7.82,4,2,9.82,2,17c0,3.5,1.396,6.663,3.645,9H10c0-1.105,0.895-2,2-2h6c1.105,0,2,0.895,2,2h4.355 C26.604,23.663,28,20.5,28,17C28,9.82,22.18,4,15,4z M4,17c0-0.552,0.448-1,1-1s1,0.448,1,1c0,0.552-0.448,1-1,1S4,17.552,4,17z M6.84,22.866c-0.478,0.276-1.09,0.112-1.366-0.366c-0.276-0.478-0.112-1.09,0.366-1.366c0.478-0.276,1.09-0.112,1.366,0.366 C7.482,21.978,7.318,22.59,6.84,22.866z M7.206,12.5c-0.276,0.478-0.888,0.642-1.366,0.366C5.361,12.59,5.198,11.978,5.474,11.5 c0.276-0.478,0.888-0.642,1.366-0.366C7.318,11.41,7.482,12.022,7.206,12.5z M10.5,9.206C10.022,9.482,9.41,9.318,9.134,8.84 S9.022,7.75,9.5,7.474c0.478-0.276,1.09-0.112,1.366,0.366S10.978,8.93,10.5,9.206z M23.16,11.134 c0.478-0.276,1.09-0.112,1.366,0.366c0.276,0.478,0.112,1.09-0.366,1.366c-0.478,0.276-1.09,0.112-1.366-0.366 C22.518,12.022,22.682,11.41,23.16,11.134z M15,6c0.552,0,1,0.448,1,1c0,0.552-0.448,1-1,1s-1-0.448-1-1C14,6.448,14.448,6,15,6z M20.515,14.857l-3.518,2.111C16.997,16.979,17,16.989,17,17c0,1.105-0.895,2-2,2s-2-0.895-2-2c0-1.105,0.895-2,2-2 c0.351,0,0.675,0.098,0.962,0.257l3.523-2.114c0.473-0.284,1.088-0.13,1.372,0.343C21.142,13.959,20.988,14.573,20.515,14.857z M20.866,8.84C20.59,9.318,19.978,9.482,19.5,9.206s-0.642-0.888-0.366-1.366s0.888-0.642,1.366-0.366 C20.978,7.75,21.142,8.361,20.866,8.84z M24.526,22.5c-0.276,0.478-0.888,0.642-1.366,0.366c-0.478-0.276-0.642-0.888-0.366-1.366 c0.276-0.478,0.888-0.642,1.366-0.366C24.639,21.41,24.802,22.022,24.526,22.5z M25,18c-0.552,0-1-0.448-1-1c0-0.552,0.448-1,1-1 s1,0.448,1,1C26,17.552,25.552,18,25,18z" fill="#25388C" />
</svg>